<svg width="23" height="24" viewBox="0 0 23 24" fill="none" xmlns="http://www.w3.org/2000/svg">
<path d="M21.625 16.4009V7.5991C21.6246 7.21322 21.5185 6.83423 21.3174 6.50015C21.1163 6.16607 20.8272 5.88865 20.4792 5.69571L12.4583 1.2948C12.11 1.10167 11.7148 1 11.3125 1C10.9102 1 10.515 1.10167 10.1667 1.2948L2.14583 5.69571C1.7978 5.88865 1.50873 6.16607 1.30761 6.50015C1.1065 6.83423 1.00041 7.21322 1 7.5991V16.4009C1.00041 16.7868 1.1065 17.1658 1.30761 17.4998C1.50873 17.8339 1.7978 18.1114 2.14583 18.3043L10.1667 22.7052C10.515 22.8983 10.9102 23 11.3125 23C11.7148 23 12.11 22.8983 12.4583 22.7052L20.4792 18.3043C20.8272 18.1114 21.1163 17.8339 21.3174 17.4998C21.5185 17.1658 21.6246 16.7868 21.625 16.4009Z" fill="#667080" stroke="#667080" stroke-width="2" stroke-linecap="round" stroke-linejoin="round"/>
</svg>
