<?xml version="1.0" encoding="utf-8"?>
<!-- Generator: Adobe Illustrator 25.2.1, SVG Export Plug-In . SVG Version: 6.00 Build 0)  -->
<svg version="1.1" id="Capa_1" xmlns="http://www.w3.org/2000/svg" xmlns:xlink="http://www.w3.org/1999/xlink" x="0px" y="0px"
	 viewBox="0 0 500 500" style="enable-background:new 0 0 500 500;" xml:space="preserve">
<style type="text/css">
	.st0{display:none;}
	.st1{display:inline;}
	.st2{fill:#C427EB;}
	.st3{fill:#28262C;}
</style>
<g id="BACKGROUND" class="st0">
	<g id="TEXTS" class="st1">
	</g>
</g>
<g id="OBJECTS">
	<g>
		<g>
			<g>
				<path class="st2" d="M430,264.4c0-0.5,0-1,0-1.5c49.2-42.6,49.2-113.5,45.6-144.5S444.1,0,444.1,0
					c-33.9,54.6-91.5,83.9-123.8,119.6c-20.9-6.6-43.8-10-67.8-10c-24.7,0-48.2,3.6-69.6,10.6C150.7,84.2,92.7,54.9,58.6,0
					c0,0-26.5,82.6-31.5,118.3s-3.7,105.1,47.9,146.4c0,0.5,0,1.1,0,1.6c0,0-16.4,59.8,19.7,107.4c36.1,47.7,90.1,42.3,103.7,88.3
					c9.4,32,29.3,38,54.2,38c31,0,48.8-10.2,54.2-38c9.2-47.1,67.6-40.6,103.6-88.3S430,266.3,430,266.3
					C430,265.6,430,265,430,264.4z"/>
				<g>
					<path class="st3" d="M273.8,438.8h-42.9c-10,0-16.6,9-12.5,17l1.5,2.8c5.8,11.2,18.5,18.4,32.5,18.4c14,0,26.7-7.2,32.5-18.4
						l1.5-2.8C290.4,447.8,283.7,438.8,273.8,438.8z"/>
				</g>
				<g>
					<g>
						<g>
							<path class="st3" d="M356,283.2c26.6-27.6,21.9-28.9,23.2-38.9c9.6,23.3,11.5,43.1,5.8,59.8c-7.5,22-28.3,38.7-48.9,53.9
								c-19.6,14.5-35.9,28.4-48.3,40.1C284.9,334,315.9,324.8,356,283.2z"/>
						</g>
					</g>
				</g>
				<g>
					<g>
						<g>
							<path class="st3" d="M148.7,283.2c-26.6-27.6-21.9-28.9-23.2-38.9c-9.6,23.3-11.5,43.1-5.8,59.8c7.5,22,28.3,38.7,48.9,53.9
								c19.6,14.5,35.9,28.4,48.3,40.1C219.8,334,188.8,324.8,148.7,283.2z"/>
						</g>
					</g>
				</g>
			</g>
		</g>
	</g>
</g>
</svg>
